<svg id="SvgjsSvg1001" width="288" height="288" xmlns="http://www.w3.org/2000/svg" version="1.1" xmlns:xlink="http://www.w3.org/1999/xlink" xmlns:svgjs="http://svgjs.com/svgjs"><defs id="SvgjsDefs1002"></defs><g id="SvgjsG1008" transform="matrix(1,0,0,1,0,0)"><svg xmlns="http://www.w3.org/2000/svg" viewBox="0 0 24 24" width="288" height="288"><path fill="#0e153a" d="M23.935 12.252c-2.235-3.91-5.957-6.167-10.23-6.238-1.658-1.493-4.988-1.988-5.135-2.009a.5.5 0 0 0-.54.67c.282.756.655 1.892.777 2.511-1.608.692-3.044 1.546-3.81 2.154C3.677 8.324.83 7.098.697 7.04a.498.498 0 0 0-.527.084.497.497 0 0 0-.15.513c.01.034.98 3.45.98 4.862s-.97 4.828-.98 4.863a.498.498 0 1 0 .678.597c.132-.057 2.98-1.284 4.3-2.3.308.246.73.532 1.223.83-.125.236-.22.556-.22 1.01C6 18.715 7.132 20 8.202 20c1.313 0 1.89-.304 2.607-1.454.934.276 1.86.454 2.69.454 4.36 0 8.164-2.279 10.435-6.252a.504.504 0 0 0 0-.496z" class="color303C42 svgShape"></path><path fill="#22d1ee" d="M9.262 5.153c.767.168 1.92.484 2.865.985a14.12 14.12 0 0 0-2.383.673 17.31 17.31 0 0 0-.482-1.658z" class="colorFFCA28 svgShape"></path><path fill="#3d5af1" d="M8.203 19C7.772 19 7 18.244 7 17.5c0-.262.044-.421.083-.518.825.444 1.773.884 2.747 1.24-.497.732-.828.778-1.627.778z" class="colorFF6F00 svgShape"></path><linearGradient id="a" x1="1.257" x2="22.921" y1="12.5" y2="12.5" gradientUnits="userSpaceOnUse"><stop offset="0" stop-color="#0029ff" class="stopColorFF6F00 svgShape"></stop><stop offset=".208" stop-color="#022aff" class="stopColorFF7302 svgShape"></stop><stop offset=".418" stop-color="#07e5ff" class="stopColorFF7F07 svgShape"></stop><stop offset=".631" stop-color="#10e6ff" class="stopColorFF9410 svgShape"></stop><stop offset=".843" stop-color="#1de7ff" class="stopColorFFB01D svgShape"></stop><stop offset="1" stop-color="#28e8ff" class="stopColorFFCA28 svgShape"></stop></linearGradient><path fill="url(#a)" d="M13.5 18c-2.91 0-7.284-2.491-8.146-3.353a.498.498 0 0 0-.707 0c-.577.575-2.212 1.412-3.39 1.963C1.56 15.435 2 13.542 2 12.5s-.44-2.934-.743-4.11c1.178.551 2.813 1.388 3.39 1.964a.5.5 0 0 0 .707 0C6.216 9.492 10.59 7 13.5 7c3.9 0 7.319 2 9.421 5.5-2.102 3.5-5.52 5.5-9.42 5.5z"></path><path d="M13.5 16.938c-2.91 0-7.284-2.01-8.146-2.706-.098-.079-.226-.118-.354-.118s-.256.04-.353.118c-.543.437-2.02 1.059-3.174 1.502-.074.315-.149.615-.216.876 1.178-.55 2.813-1.388 3.39-1.963a.498.498 0 0 1 .707 0C6.216 15.509 10.59 18 13.5 18c3.9 0 7.319-2 9.421-5.5-2.102 2.824-5.52 4.438-9.42 4.438z" opacity=".1" fill="#000000" class="color000 svgShape"></path><path fill="#e2f3f5" d="M13.5 7c-2.91 0-7.284 2.492-8.146 3.354a.5.5 0 0 1-.707 0C4.07 9.778 2.435 8.94 1.257 8.39c.067.262.142.562.216.877 1.155.443 2.631 1.064 3.174 1.501a.588.588 0 0 0 .707 0c.862-.695 5.236-2.706 8.146-2.706 3.9 0 7.319 1.615 9.421 4.438C20.82 9 17.401 7 13.501 7z" opacity=".2" class="colorFFF svgShape"></path><circle cx="19" cy="12" r="1" fill="#0e153a" class="color303C42 svgShape"></circle><path fill="#0e153a" d="M14.5 13.5c0-1.326.907-2.71.916-2.723a.5.5 0 0 0-.832-.554c-.044.066-1.084 1.644-1.084 3.277s1.04 3.21 1.084 3.277a.5.5 0 1 0 .832-.554c-.009-.014-.916-1.39-.916-2.723z" class="color303C42 svgShape"></path><linearGradient id="b" x1="-.292" x2="21.422" y1="8.015" y2="18.14" gradientUnits="userSpaceOnUse"><stop offset="0" stop-color="#ffffff" stop-opacity=".2" class="stopColorFFF svgShape"></stop><stop offset="1" stop-color="#ffffff" stop-opacity="0" class="stopColorFFF svgShape"></stop></linearGradient><path fill="url(#b)" d="M23.935 12.252c-2.235-3.91-5.957-6.167-10.23-6.238-1.658-1.493-4.988-1.988-5.135-2.009a.5.5 0 0 0-.54.67c.282.756.655 1.892.777 2.511-1.608.692-3.044 1.546-3.81 2.154C3.677 8.324.83 7.098.697 7.04a.498.498 0 0 0-.527.084.497.497 0 0 0-.15.513c.01.034.98 3.45.98 4.862s-.97 4.828-.98 4.863a.498.498 0 1 0 .678.597c.132-.057 2.98-1.284 4.3-2.3.308.246.73.532 1.223.83-.125.236-.22.556-.22 1.01C6 18.715 7.132 20 8.202 20c1.313 0 1.89-.304 2.607-1.454.934.276 1.86.454 2.69.454 4.36 0 8.164-2.279 10.435-6.252a.504.504 0 0 0 0-.496z"></path></svg></g></svg>