<svg width="17" height="21" viewBox="0 0 17 21" fill="none" xmlns="http://www.w3.org/2000/svg">
<path d="M1.25158 16.7237V1.25158H8.76105V4.59632C8.76105 4.94158 9.04158 5.22211 9.38684 5.22211H12.7316V11.3289C13.1632 11.3505 13.5947 11.4368 13.9832 11.5663V3.94895C13.9832 3.77632 13.9184 3.62526 13.8105 3.51737L10.4658 0.172632C10.3579 0.0647368 10.1853 0 10.0342 0H0.62579C0.280526 0 0 0.280526 0 0.625789V17.3495C0 17.6947 0.280526 17.9753 0.62579 17.9753H7.33684C7.20737 17.5868 7.14263 17.1553 7.12105 16.7237H1.25158ZM10.0126 1.48895L12.4942 3.97053H10.0126V1.48895Z" fill="black" fill-opacity="0.6"/>
<path d="M6.86211 13.3142H3.88421C3.53895 13.3142 3.25842 13.5947 3.25842 13.94C3.25842 14.2853 3.53895 14.5658 3.88421 14.5658H6.86211C7.20737 14.5658 7.4879 14.2853 7.4879 13.94C7.4879 13.5947 7.20737 13.3142 6.86211 13.3142Z" fill="black" fill-opacity="0.6"/>
<path d="M10.0989 10.1852H3.88421C3.53895 10.1852 3.25842 10.4657 3.25842 10.811C3.25842 11.1562 3.53895 11.4368 3.88421 11.4368H10.0989C10.4442 11.4368 10.7247 11.1562 10.7247 10.811C10.7247 10.4657 10.4442 10.1852 10.0989 10.1852Z" fill="black" fill-opacity="0.6"/>
<path d="M10.0989 7.078H3.88421C3.53895 7.078 3.25842 7.35853 3.25842 7.70379C3.25842 8.04906 3.53895 8.32958 3.88421 8.32958H10.0989C10.4442 8.32958 10.7247 8.04906 10.7247 7.70379C10.7247 7.35853 10.4442 7.078 10.0989 7.078Z" fill="black" fill-opacity="0.6"/>
<path d="M3.88421 5.22216H6.43053C6.77579 5.22216 7.05632 4.94163 7.05632 4.59637C7.05632 4.25111 6.77579 3.97058 6.43053 3.97058H3.88421C3.53895 3.97058 3.25842 4.25111 3.25842 4.59637C3.25842 4.94163 3.53895 5.22216 3.88421 5.22216Z" fill="black" fill-opacity="0.6"/>
<path d="M12.3432 12.559C10.1421 12.559 8.37263 14.3284 8.37263 16.5295C8.37263 18.7305 10.1421 20.5 12.3432 20.5C14.5442 20.5 16.3137 18.7305 16.3137 16.5295C16.3137 14.3284 14.5442 12.559 12.3432 12.559ZM14.2421 16.0763L12.2137 18.1047C12.0842 18.2342 11.9332 18.2774 11.7821 18.2774C11.6311 18.2774 11.4584 18.2126 11.3505 18.1047L10.3147 17.1121C10.0774 16.8747 10.0774 16.4647 10.3147 16.2274C10.5521 15.99 10.9621 15.99 11.1995 16.2274L11.7605 16.7884L13.3574 15.1916C13.5947 14.9542 14.0047 14.9542 14.2421 15.1916C14.4795 15.4505 14.4795 15.839 14.2421 16.0763Z" fill="black" fill-opacity="0.6"/>
</svg>
