<svg width="28" height="25" viewBox="0 0 28 25" fill="none" xmlns="http://www.w3.org/2000/svg">
<path d="M1.03171 11.3856C0.992496 11.1743 0.989614 10.9537 1.02328 10.7406C1.05695 10.5275 1.12628 10.3275 1.226 10.1559C1.32573 9.98419 1.45324 9.84531 1.59885 9.74977C1.74446 9.65424 1.90435 9.60455 2.06637 9.60449H20.669C20.831 9.60455 20.9909 9.65424 21.1365 9.74977C21.2821 9.84531 21.4096 9.98419 21.5093 10.1559C21.6091 10.3275 21.6784 10.5275 21.7121 10.7406C21.7457 10.9537 21.7429 11.1743 21.7036 11.3856L19.7719 21.7727C19.6566 22.3932 19.3902 22.944 19.0153 23.3377C18.6404 23.7313 18.1783 23.9452 17.7026 23.9453H5.03276C4.55704 23.9452 4.09499 23.7313 3.72005 23.3377C3.34511 22.944 3.0788 22.3932 2.96343 21.7727L1.03171 11.3871V11.3856Z" stroke="white" stroke-width="2" stroke-linejoin="round"/>
<path d="M8.16772 15.3408V18.209" stroke="white" stroke-width="2" stroke-linecap="round"/>
<path d="M14.5677 15.3408V18.209" stroke="white" stroke-width="2" stroke-linecap="round"/>
<path d="M4.96762 9.6045L9.23422 1" stroke="white" stroke-width="2" stroke-linecap="round"/>
<path d="M17.7677 9.6045L13.5011 1" stroke="white" stroke-width="2" stroke-linecap="round"/>
<circle cx="21" cy="10" r="7" fill="#F32727"/>
</svg>
