<svg width="32" height="32" viewBox="0 0 32 32" fill="none" xmlns="http://www.w3.org/2000/svg">
<path d="M14.4188 4.16284H3.98195C3.19109 4.16284 2.43262 4.47701 1.87339 5.03622C1.31417 5.59544 1 6.3539 1 7.14475V28.0181C1 28.8089 1.31417 29.5674 1.87339 30.1266C2.43262 30.6858 3.19109 31 3.98195 31H24.8556C25.6465 31 26.405 30.6858 26.9642 30.1266C27.5234 29.5674 27.8376 28.8089 27.8376 28.0181V17.5814" stroke="#939393" stroke-width="2" stroke-linecap="round" stroke-linejoin="round"/>
<path d="M25.6006 1.92636C26.1937 1.33322 26.9982 1 27.837 1C28.6759 1 29.4804 1.33322 30.0735 1.92636C30.6666 2.5195 30.9999 3.32397 30.9999 4.16279C30.9999 5.00161 30.6666 5.80608 30.0735 6.39922L15.9092 20.5633L9.94531 22.0542L11.4363 16.0904L25.6006 1.92636Z" stroke="#939393" stroke-width="2" stroke-linecap="round" stroke-linejoin="round"/>
</svg>
