<svg width="64" height="39" viewBox="0 0 64 39" fill="none" xmlns="http://www.w3.org/2000/svg">
<path fill-rule="evenodd" clip-rule="evenodd" d="M23.0527 34.8305H40.1415V4.16895H23.0527V34.8305Z" fill="#FF5F00"/>
<path fill-rule="evenodd" clip-rule="evenodd" d="M24.1386 19.5C24.1386 13.2795 27.0556 7.73932 31.598 4.1692C28.2757 1.55783 24.0844 0 19.5284 0C8.74295 0 0 8.73057 0 19.5C0 30.2694 8.74295 38.9999 19.5284 38.9999C24.0844 38.9999 28.2757 37.4421 31.598 34.8307C27.0556 31.2601 24.1386 25.7205 24.1386 19.5Z" fill="#EB001B"/>
<path fill-rule="evenodd" clip-rule="evenodd" d="M62.5859 31.5834V30.8267H62.3879L62.1606 31.3473L61.9327 30.8267H61.7347V31.5834H61.8741V31.0125L62.0879 31.5049H62.2327L62.4465 31.0115V31.5834H62.5859ZM61.3322 31.5834V30.9557H61.5861V30.8278H60.9405V30.9557H61.1938V31.5834H61.3322ZM63.1957 19.5C63.1957 30.2694 54.4522 38.9999 43.6672 38.9999C39.1113 38.9999 34.9194 37.4421 31.5977 34.8307C36.14 31.2606 39.0571 25.7205 39.0571 19.5C39.0571 13.28 36.14 7.73986 31.5977 4.1692C34.9194 1.55783 39.1113 0 43.6672 0C54.4522 0 63.1957 8.73057 63.1957 19.5Z" fill="#F79E1B"/>
</svg>
