<svg width="81" height="25" viewBox="0 0 81 25" fill="none" xmlns="http://www.w3.org/2000/svg">
<path d="M30.75 0.440797L20.1487 24.6201H13.23L8.01 5.3254C7.695 4.13561 7.42125 3.70198 6.4575 3.20026C4.875 2.38317 2.28375 1.61984 0 1.14321L0.15375 0.426462H11.2912C12.0162 0.430029 12.7162 0.680073 13.2659 1.13183C13.8156 1.58359 14.179 2.20757 14.2912 2.89206L17.0475 16.8865L23.88 0.440797H30.75ZM57.8625 16.7252C57.8925 10.3462 48.63 9.99498 48.6937 7.14235C48.7125 6.27509 49.5788 5.35049 51.4688 5.11755C53.6821 4.91322 55.9121 5.2847 57.9225 6.19266L59.0737 1.07511C57.1152 0.372956 55.0418 0.00892738 52.95 0C46.5 0 41.925 3.28627 41.8875 7.99168C41.8462 11.4679 45.1387 13.4138 47.625 14.575C50.1712 15.7576 51.0262 16.5173 51 17.5781C51 19.2015 48.9638 19.9147 47.0813 19.9434C43.7925 19.9935 41.88 19.094 40.3575 18.4167L39.1875 23.7134C40.7175 24.3872 43.5412 24.9713 46.4662 25C53.3437 25 57.84 21.7532 57.8625 16.7252ZM74.9475 24.6094H81L75.7162 0.440797H70.125C69.5287 0.438361 68.9451 0.605817 68.4488 0.921784C67.9526 1.23775 67.5661 1.68789 67.3387 2.21474L57.5212 24.6201H64.395L65.76 21.0077H74.1562L74.9475 24.6094ZM67.6425 16.055L71.0888 6.97391L73.0725 16.055H67.6425ZM40.125 0.440797L34.695 24.6201H28.1475L33.5625 0.440797H40.125Z" fill="#1A1F71"/>
</svg>
